<mxfile host="app.diagrams.net" modified="2023-07-31T06:56:07.287Z" agent="Mozilla/5.0 (Windows NT 10.0; Win64; x64) AppleWebKit/537.36 (KHTML, like Gecko) Chrome/115.0.0.0 Safari/537.36" version="21.6.1" etag="3z3EfYJrbWGuoXIE3rrj" type="github">
  <diagram name="Page-1" id="fStl6XdDEOFiQj_yE5C6">
    <mxGraphModel>
      <root>
        <mxCell id="0" />
        <mxCell id="1" parent="0" />
      </root>
    </mxGraphModel>
  </diagram>
</mxfile>
